<?xml version="1.0" encoding="utf-8"?>
<!-- Generator: Adobe Illustrator 25.2.1, SVG Export Plug-In . SVG Version: 6.00 Build 0)  -->
<svg version="1.1" id="Слой_1" xmlns="http://www.w3.org/2000/svg" xmlns:xlink="http://www.w3.org/1999/xlink" x="0px" y="0px"
	 viewBox="0 0 300 300" style="enable-background:new 0 0 300 300;" xml:space="preserve">
<style type="text/css">
	.st0{fill:none;stroke:#FFFFFF;stroke-width:3;stroke-miterlimit:10;}
</style>
<circle class="st0" cx="115.5" cy="43.5" r="25"/>
<circle class="st0" cx="189.5" cy="39.5" r="25"/>
<path class="st0" d="M93.39,55.18c-2.74,2.56-5.55,4.99-8.3,7.55c-2.94,2.72-5.95,5.78-7.43,9.58c-1.56,4.02-0.55,8.16,2.6,11.09
	c1.02,0.95,2.2,1.74,3.44,2.38c1.84,0.93,3.9,1.55,5.96,1.37c3.68-0.32,6.3-2.96,8.79-5.42c4.36-4.31,8.26-9.07,12.39-13.58"/>
<path class="st0" d="M76.95,76.38C67.94,87.93,58.32,99,48.85,110.18c-1.51,1.78-3.29,4.12-2.83,6.63c0.52,2.79,2.73,5.77,4.13,8.19
	c5.41,9.36,10.89,18.69,16.77,27.75c1.81,2.79,3.67,5.55,5.58,8.27c2.98,4.24,5.82,10.19,11.61,10.88c3.5,0.42,6.94-1.48,9.33-4.06
	c1.39-1.5,2.53-3.31,2.87-5.33c0.74-4.44-2.35-8.71-4.49-12.33c-2.49-4.23-5.14-8.36-7.73-12.53c-1.78-2.88-3.56-5.76-5.29-8.67
	c-1.65-2.78-3.59-5.65-4.82-8.64c-0.91-2.23,0.3-4.21,1.75-5.85c3.06-3.47,6.11-6.95,9.17-10.42c0.05-0.05,0.1-0.11,0.16-0.14
	c0.35-0.18,0.58,0.39,0.57,0.78c-0.39,11.25-0.51,22.55-1.15,33.78"/>
<path class="st0" d="M83.03,171.71c-1.12,26.95-1.67,53.97-3.64,80.87c-0.49,6.65-1.27,13.4-0.03,20.02
	c0.55,2.92,1.53,5.84,3.44,8.12c1.92,2.3,4.74,3.82,7.72,4.15c2.98,0.33,6.07-0.54,8.43-2.39c3.95-3.1,5.45-8.4,5.82-13.41
	c0.77-10.55,1.12-21.16,1.85-31.74c1.3-18.91,2.79-37.81,4.11-56.72c0.08-1.17,0.18-2.39,0.82-3.37c0.64-0.98,2.02-1.58,3.02-0.97
	c0.86,0.52,1.09,1.66,1.23,2.66c1.73,12.65,2.08,25.39,2.98,38.11c0.93,13.12,1.57,26.26,1.93,39.4
	c0.26,9.43,1.05,28.06,14.67,27.51c4.86-0.2,8.5-3.63,10.44-7.88c2.62-5.74,1.39-12.32,1.13-18.41c-0.29-6.82-0.58-13.64-0.87-20.46
	c-0.58-13.64-1.17-27.28-1.75-40.92c-1.17-27.28-2.33-54.56-3.5-81.85c-0.17-3.96-0.34-7.91-0.51-11.87
	c-0.04-0.89-0.03-1.91,0.64-2.51c0.9-0.82,2.32-0.32,3.41,0.23c5.53,2.79,13.01,7.73,18.14,11.21"/>
<path class="st0" d="M125.5,66.5c6.94,0.19,14.03,0.85,20.62,3.03c6.59,2.18,12.76,6.67,15.29,13.13c1.78,4.54,1.62,9.57,1.43,14.44
	c-1.02,26.83-1.95,53.68-3.14,80.51c-1.2,26.88-2.18,53.79-4.02,80.64c-0.32,4.69-0.62,9.47,0.63,14.06
	c1.27,4.69,4.52,9.34,9.23,11.02c3.08,1.1,6.7,0.81,9.4-1.04c5.43-3.72,6.23-11.67,7-17.63c1.6-12.39,1.16-25.06,1.72-37.53
	c0.36-8.14,0.83-16.28,1.41-24.41c0.55-7.79,0.7-15.85,3.12-23.34c0.36-1.1,1.4-2.44,2.38-1.81c0.36,0.23,0.52,0.65,0.66,1.06
	c2.01,5.95,2.37,12.74,2.91,18.96c0.59,6.77,0.89,13.56,1.37,20.34c0.93,13.29,1.75,26.58,2.26,39.89
	c0.31,8.04,0.23,20.71,8.31,25.33c4.11,2.35,9.64,1.05,13.09-2.2c8.07-7.62,5.41-20.08,4.72-29.82c-0.48-6.78-0.88-13.56-1.25-20.34
	c-0.74-13.57-1.34-27.14-2.06-40.71c-0.25-4.75-0.52-9.5-0.81-14.24c-0.09-1.44-0.2-4.88-0.27-6.33"/>
<path class="st0" d="M140.53,51.44c15.04,5.28,26.4,8.67,41.97,12.06"/>
<path class="st0" d="M188.16,64.4c9.62,2.6,20.5-0.58,29.58,4.15c4.46,2.32,7.74,6.36,10.89,10.28
	c6.59,8.21,13.17,16.41,19.76,24.62c2.22,2.77,4.81,5.47,6.11,8.83c1.51,3.89-0.08,7.08-2.06,10.49
	c-7.38,12.69-14.75,25.37-22.13,38.06c-1.54,2.64-3.15,5.37-5.64,7.14c-3.33,2.37-8.17,2.56-11.48,0.15
	c-3.81-2.78-4.86-8.23-3.74-12.82c1.54-6.36,6.32-11.57,9.45-17.18c2.64-4.74,5.42-9.23,8.48-13.69c1.6-2.32,2.86-5.18,2.15-7.9
	c-1.07-4.08-5.56-6.79-8.63-9.28c-0.21-0.17-0.46-0.36-0.73-0.34c-0.42,0.03-0.66,0.48-0.77,0.88c-0.33,1.15-0.31,2.36-0.29,3.55
	c0.16,8.38,0.55,16.76,0.39,25.15"/>
</svg>
